<svg width="25" height="25" viewBox="0 0 25 25" fill="none" xmlns="http://www.w3.org/2000/svg">
<path d="M18.3759 16.0842H17.2567L16.8601 15.7017C18.5601 13.7184 19.4384 11.0126 18.9567 8.13672C18.2909 4.19839 15.0042 1.05339 11.0376 0.57172C5.04507 -0.164947 0.00173998 4.87839 0.738407 10.8709C1.22007 14.8376 4.36507 18.1242 8.30341 18.7901C11.1792 19.2717 13.8851 18.3934 15.8684 16.6934L16.2509 17.0901V18.2092L22.2717 24.2301C22.8526 24.8109 23.8017 24.8109 24.3826 24.2301C24.9634 23.6492 24.9634 22.7001 24.3826 22.1192L18.3759 16.0842ZM9.87591 16.0842C6.34841 16.0842 3.50091 13.2367 3.50091 9.70922C3.50091 6.18172 6.34841 3.33422 9.87591 3.33422C13.4034 3.33422 16.2509 6.18172 16.2509 9.70922C16.2509 13.2367 13.4034 16.0842 9.87591 16.0842Z" fill="#4B4B4B"/>
</svg>
