<svg width="41" height="41" viewBox="0 0 41 41" fill="none" xmlns="http://www.w3.org/2000/svg">
<path fill-rule="evenodd" clip-rule="evenodd" d="M9.14816 27.4537C9.83852 27.4537 10.3982 28.0133 10.3982 28.7037V32.037C10.3982 32.2671 10.5847 32.4537 10.8148 32.4537H30.8148C31.0449 32.4537 31.2315 32.2671 31.2315 32.037V28.7037C31.2315 28.0133 31.7911 27.4537 32.4815 27.4537C33.1719 27.4537 33.7315 28.0133 33.7315 28.7037V32.037C33.7315 33.6479 32.4257 34.9537 30.8148 34.9537H10.8148C9.204 34.9537 7.89816 33.6479 7.89816 32.037V28.7037C7.89816 28.0133 8.45781 27.4537 9.14816 27.4537Z" fill="#4B4B4B"/>
<path d="M18.7114 6.62036C17.8541 6.62036 17.1389 7.27557 17.0641 8.12961C16.808 11.0508 16.7628 13.9863 16.9288 16.9134C16.5172 16.9362 16.1057 16.9625 15.6944 16.9925L13.2119 17.1735C12.2547 17.2433 11.7196 18.3105 12.2364 19.1192C14.0064 21.8894 16.2872 24.2976 18.9571 26.2155L19.9517 26.93C20.4675 27.3005 21.1623 27.3005 21.6781 26.93L22.6727 26.2155C25.3426 24.2976 27.6234 21.8894 29.3935 19.1192C29.9102 18.3105 29.3751 17.2433 28.418 17.1735L25.9355 16.9925C25.5242 16.9625 25.1127 16.9362 24.701 16.9134C24.867 13.9863 24.8218 11.0508 24.5658 8.1296C24.4909 7.27556 23.7757 6.62036 22.9184 6.62036H18.7114Z" fill="#4B4B4B"/>
</svg>
