<svg width="29" height="26" viewBox="0 0 29 26" fill="none" xmlns="http://www.w3.org/2000/svg">
<path d="M24.9298 2.18692C21.2338 -0.333084 16.6698 0.842916 14.2058 3.72692C11.7418 0.842916 7.17776 -0.347084 3.48176 2.18692C1.52176 3.53092 0.289764 5.79892 0.205764 8.19292C0.00976421 13.6249 4.82577 17.9789 12.1758 24.6569L12.3158 24.7829C13.3798 25.7489 15.0178 25.7489 16.0818 24.7689L16.2358 24.6289C23.5858 17.9649 28.3878 13.6109 28.2058 8.17892C28.1218 5.79892 26.8898 3.53092 24.9298 2.18692ZM14.3458 22.5709L14.2058 22.7109L14.0658 22.5709C7.40176 16.5369 3.00576 12.5469 3.00576 8.50092C3.00576 5.70092 5.10576 3.60092 7.90576 3.60092C10.0618 3.60092 12.1618 4.98692 12.9038 6.90492H15.5218C16.2498 4.98692 18.3498 3.60092 20.5058 3.60092C23.3058 3.60092 25.4058 5.70092 25.4058 8.50092C25.4058 12.5469 21.0098 16.5369 14.3458 22.5709Z" fill="#F33213"/>
</svg>
